<?xml version="1.0" encoding="iso-8859-1"?>
<!-- Uploaded to: SVG Repo, www.svgrepo.com, Generator: SVG Repo Mixer Tools -->
<svg version="1.1" id="Layer_1" xmlns="http://www.w3.org/2000/svg" xmlns:xlink="http://www.w3.org/1999/xlink" 
	 viewBox="0 0 512 512" xml:space="preserve">
<polygon style="fill:#DBDBDB;" points="391.694,246.208 425.268,246.208 425.268,179.06 391.694,167.869 "/>
<polygon style="fill:#F6E27D;" points="235.016,179.06 210.233,112.178 268.59,89.53 324.546,156.678 "/>
<polygon style="fill:#EFC27B;" points="268.59,89.53 246.208,98.217 246.208,176.262 324.546,156.678 "/>
<path style="fill:#797781;" d="M229.421,380.503h223.825c27.811,0,50.361,22.549,50.361,50.361s-22.549,50.361-50.361,50.361
	H229.421c-27.811,0-50.361-22.549-50.361-50.361S201.609,380.503,229.421,380.503z"/>
<path style="fill:#58575D;" d="M453.246,380.503H246.208v100.721h207.038c27.811,0,50.361-22.549,50.361-50.361
	S481.057,380.503,453.246,380.503z"/>
<rect x="235.016" y="324.546" style="fill:#F6E27D;" width="212.634" height="55.956"/>
<g>
	<rect x="246.208" y="324.546" style="fill:#EFC27B;" width="201.443" height="55.956"/>
	<polygon style="fill:#EFC27B;" points="78.339,22.383 11.191,22.383 11.191,346.929 55.956,346.929 	"/>
</g>
<polygon style="fill:#F6E27D;" points="44.765,111.913 235.016,123.104 235.016,55.956 44.765,67.148 "/>
<g>
	<circle style="fill:#F8E99B;" cx="235.016" cy="89.53" r="33.574"/>
	<circle style="fill:#F8E99B;" cx="44.765" cy="89.53" r="22.383"/>
</g>
<path style="fill:#F6E27D;" d="M100.721,436.459H50.361C22.547,436.459,0,413.912,0,386.098v-50.361h50.361
	c27.814,0,50.361,22.547,50.361,50.361V436.459z"/>
<path style="fill:#EFC27B;" d="M119.607,436.459H97.924c-4.635,0-8.393-3.758-8.393-8.393c0-4.635,3.758-8.393,8.393-8.393h21.683
	c4.635,0,8.393,3.758,8.393,8.393C128,432.701,124.242,436.459,119.607,436.459z"/>
<path style="fill:#F8E99B;" d="M481.224,246.208v89.53H201.443v-89.53c0-49.446,40.084-89.53,89.53-89.53h44.765v89.53H481.224z"/>
<path style="fill:#F6E27D;" d="M481.224,246.208H335.738v-89.53h-44.765c-16.313,0-31.593,4.385-44.765,12.008v167.052h235.016
	V246.208z"/>
<g>
	<path style="fill:#88888F;" d="M503.607,489.617H179.06c-4.635,0-8.393-3.758-8.393-8.393s3.758-8.393,8.393-8.393h324.546
		c4.635,0,8.393,3.758,8.393,8.393S508.242,489.617,503.607,489.617z"/>
	<path style="fill:#88888F;" d="M453.246,489.617H229.421c-32.398,0-58.754-26.357-58.754-58.754s26.357-58.754,58.754-58.754
		h223.825c32.398,0,58.754,26.357,58.754,58.754S485.643,489.617,453.246,489.617z M229.421,388.896
		c-23.141,0-41.967,18.826-41.967,41.967s18.826,41.967,41.967,41.967h223.825c23.141,0,41.967-18.826,41.967-41.967
		s-18.826-41.967-41.967-41.967H229.421z"/>
</g>
<g>
	<path style="fill:#DBDBDB;" d="M453.246,444.852c-7.714,0-13.989-6.275-13.989-13.989s6.275-13.989,13.989-13.989
		s13.989,6.275,13.989,13.989S460.96,444.852,453.246,444.852z"/>
	<path style="fill:#DBDBDB;" d="M341.333,444.852c-7.714,0-13.989-6.275-13.989-13.989s6.275-13.989,13.989-13.989
		s13.989,6.275,13.989,13.989S349.047,444.852,341.333,444.852z"/>
</g>
<path style="fill:#EDEDED;" d="M229.421,444.852c-7.714,0-13.989-6.275-13.989-13.989s6.275-13.989,13.989-13.989
	s13.989,6.275,13.989,13.989S237.135,444.852,229.421,444.852z"/>
<g>
	<path style="fill:#DBDBDB;" d="M285.377,444.852c-7.714,0-13.989-6.275-13.989-13.989s6.275-13.989,13.989-13.989
		c7.714,0,13.989,6.275,13.989,13.989S293.091,444.852,285.377,444.852z"/>
	<path style="fill:#DBDBDB;" d="M397.29,444.852c-7.714,0-13.989-6.275-13.989-13.989s6.275-13.989,13.989-13.989
		s13.989,6.275,13.989,13.989S405.004,444.852,397.29,444.852z"/>
</g>
<path style="fill:#D1E5F5;" d="M246.208,246.208c0-24.723,20.042-44.765,44.765-44.765v44.765H246.208z"/>
<g>
	<rect x="369.311" y="223.825" style="fill:#797781;" width="78.339" height="44.765"/>
	<path style="fill:#797781;" d="M425.268,310.557H257.399c-4.635,0-8.393-3.758-8.393-8.393c0-4.635,3.758-8.393,8.393-8.393
		h167.869c4.635,0,8.393,3.758,8.393,8.393C433.661,306.799,429.903,310.557,425.268,310.557z"/>
	<path style="fill:#797781;" d="M453.246,372.109H246.208v16.787h207.038c23.141,0,41.967,18.826,41.967,41.967
		s-18.826,41.967-41.967,41.967H246.208v16.787h207.038c32.398,0,58.754-26.357,58.754-58.754S485.643,372.109,453.246,372.109z"/>
	<path style="fill:#797781;" d="M503.607,472.831H246.208v16.787h257.399c4.635,0,8.393-3.758,8.393-8.393
		S508.242,472.831,503.607,472.831z"/>
</g>
<path style="fill:#F6E27D;" d="M268.59,89.53c0-14.618-9.344-27.046-22.383-31.656v63.311
	C259.247,116.576,268.59,104.148,268.59,89.53z"/>
<polygon style="fill:#B4D8F1;" points="290.973,246.208 290.973,201.443 246.208,246.208 "/>
</svg>